<?xml version="1.0" encoding="UTF-8" standalone="no"?>
<svg
   width="97.332mm"
   height="114.850mm"
   viewBox="58.334099 -261.424805 97.331795 114.849640"
   version="1.1"
   id="svg4"
   sodipodi:docname="confused.svg"
   inkscape:version="1.4.2 (ebf0e940, 2025-05-08)"
   xmlns:inkscape="http://www.inkscape.org/namespaces/inkscape"
   xmlns:sodipodi="http://sodipodi.sourceforge.net/DTD/sodipodi-0.dtd"
   xmlns="http://www.w3.org/2000/svg"
   xmlns:svg="http://www.w3.org/2000/svg">
  <defs
     id="defs4" />
  <sodipodi:namedview
     id="namedview4"
     pagecolor="#ffffff"
     bordercolor="#000000"
     borderopacity="0.25"
     inkscape:showpageshadow="2"
     inkscape:pageopacity="0.0"
     inkscape:pagecheckerboard="0"
     inkscape:deskcolor="#d1d1d1"
     inkscape:document-units="mm"
     inkscape:zoom="0.95835148"
     inkscape:cx="248.34312"
     inkscape:cy="254.60387"
     inkscape:window-width="1728"
     inkscape:window-height="859"
     inkscape:window-x="1495"
     inkscape:window-y="40"
     inkscape:window-maximized="0"
     inkscape:current-layer="svg4" />
  <path
     transform="matrix(1,0,0,-1,0,0)"
     style="stroke:none;fill:#ff6600;fill-rule:evenodd"
     d="M89.777275,261.390778C87.115372,261.132263,84.638657,260.336639,82.85054,259.16571C80.236435,257.453857,78.516052,254.690735,77.840744,251.11937C77.671585,250.224792,77.518486,248.878357,77.518486,248.285263C77.518486,247.852417,77.534134,247.795807,77.699524,247.630432C77.842239,247.487717,77.961899,247.440781,78.264862,247.408691C78.476242,247.386307,79.826721,247.25177,81.265945,247.109726C82.705162,246.967667,84.289749,246.803986,84.787262,246.746002C86.013672,246.603027,86.090775,246.607544,86.319298,246.83609C86.496468,247.01326,86.513199,247.073578,86.567398,247.730637C86.686554,249.175247,86.997162,250.433884,87.417786,251.176605C87.87822,251.989624,88.704689,252.583878,89.772545,252.869751C90.446228,253.05011,91.821838,253.067596,92.443703,252.903702C93.069916,252.738663,93.757874,252.389282,94.115707,252.054581C95.221466,251.020264,95.437569,248.951447,94.611252,247.310608C94.191971,246.478012,93.4702,245.692535,91.668365,244.107941C90.445541,243.032532,89.098518,241.707855,88.618896,241.10907C87.467232,239.671295,86.771698,238.013077,86.453812,235.947296C86.315811,235.050552,86.301331,231.15097,86.434807,230.82872C86.598923,230.43251,86.506241,230.440948,90.694969,230.440948L94.509232,230.440948L94.720238,230.629517L94.931244,230.818085L94.939537,232.35788C94.94838,233.998016,94.998444,234.390778,95.307114,235.241135C95.393402,235.478882,95.562195,235.839935,95.682205,236.043518C95.992714,236.570251,97.141434,237.701508,98.420258,238.73996C101.350571,241.119461,102.604752,242.552979,103.552261,244.605835C104.217644,246.047455,104.527641,247.456879,104.574013,249.251312C104.632996,251.533508,104.273819,253.368286,103.431,255.090179C101.713326,258.599426,98.47406,260.686005,93.797829,261.295471C92.90654,261.411621,90.563744,261.467163,89.777275,261.390778z"
     id="path1" />
  <path
     transform="matrix(1,0,0,-1,0,0)"
     style="stroke:none;fill:#ff6600;fill-rule:evenodd"
     d="M86.879768,227.675369C86.78688,227.664597,86.626961,227.568192,86.524399,227.461151L86.337936,227.26651L86.337936,223.366013L86.337936,219.465515L86.527702,219.267426L86.717468,219.069366L90.650925,219.069366C93.225159,219.069366,94.627327,219.092346,94.708679,219.135895C95.027573,219.306549,95.028152,219.314285,95.028152,223.366013C95.028152,226.503662,95.012497,227.182465,94.936752,227.328949C94.745651,227.698502,94.82579,227.691498,90.773293,227.693298C88.724747,227.694214,86.972656,227.686157,86.879768,227.675369z"
     id="path2" />
  <path
     transform="matrix(1,0,0,-1,0,0)"
     style="stroke:none;fill:#000000;fill-rule:evenodd"
     d="M105.042915,219.939514C101.467926,219.487701,98.73233,218.2164,96.603241,216.017365C94.036819,213.366638,92.84864,209.227966,93.667427,205.791275C93.775131,205.339233,93.774757,205.314377,93.656837,205.084534C93.330513,204.448456,93.163704,203.186874,93.280479,202.238098C93.465347,200.736115,94.028938,199.394073,94.862106,198.471863C95.039536,198.275452,95.141678,198.057861,95.297066,197.545273C96.381882,193.966599,98.800201,191.087357,102.015587,189.546234C103.719261,188.729675,105.305267,188.378967,107.294327,188.378967C110.868179,188.378967,114.144211,189.948349,116.533188,192.80484C117.679695,194.17572,118.659943,196.030197,119.128792,197.715302C119.232773,198.08902,119.334572,198.300949,119.496284,198.480377C120.097069,199.146912,120.657196,200.245773,120.936584,201.305954C121.154671,202.133484,121.187798,203.416626,121.010269,204.159836C120.936058,204.47052,120.801445,204.870529,120.711151,205.048721C120.557175,205.352585,120.551407,205.397797,120.618301,205.776062C120.749352,206.517105,120.769928,208.804352,120.653053,209.639862C120.247383,212.539886,119.113533,214.846283,117.432182,216.191544C116.543922,216.902222,115.478256,217.362106,114.346947,217.522949L113.797752,217.601028L113.336906,218.037048C112.369888,218.951981,110.953888,219.569794,109.113426,219.879807C108.238602,220.027161,105.996681,220.060028,105.042915,219.939514zM108.287102,217.705536C109.215034,217.605621,110.078911,217.374222,110.761017,217.042877C111.455238,216.705627,111.690491,216.524078,112.17836,215.949005C112.381241,215.709854,112.625069,215.474487,112.720215,215.425964C112.815353,215.377441,113.183945,215.317444,113.539307,215.292618C113.894669,215.267792,114.359863,215.203598,114.57309,215.149963C115.43734,214.932556,116.31488,214.302551,116.904625,213.476105C117.230209,213.019836,117.761536,211.93573,117.959625,211.323486C118.121811,210.82222,118.327118,209.773956,118.389565,209.128235L118.435562,208.652679L118.216522,208.699463C117.65506,208.819336,116.420883,209.272675,115.830902,209.575729C114.290794,210.366821,113.166206,211.517456,112.425003,213.060501C111.997902,213.949677,111.841965,214.132172,111.399513,214.260803C110.914009,214.401947,110.573395,214.30098,110.094986,213.8741C109.341164,213.201477,108.29332,212.462631,107.272003,211.883606C104.559448,210.345703,100.54155,209.378662,96.861191,209.377869L95.819016,209.377655L95.91095,209.878387C96.239006,211.665314,97.123077,213.355194,98.386955,214.611176C99.483398,215.700775,100.808472,216.500015,102.395096,217.028763C104.31144,217.667389,106.406548,217.908051,108.287102,217.705536zM110.77626,211.230743C110.938301,210.875092,111.872673,209.734833,112.449051,209.189362C113.728119,207.978851,115.262695,207.154449,117.214333,206.629364C117.529869,206.544464,117.798431,206.4646,117.81115,206.451889C117.84494,206.418091,118.012642,205.466034,118.063004,205.021973C118.101028,204.686752,118.140144,204.605118,118.381889,204.356384C118.728531,203.999756,118.80513,203.742584,118.80513,202.935516C118.80513,201.69429,118.366264,200.547668,117.617157,199.831696C117.292702,199.521606,117.179527,199.364624,117.128059,199.15329C116.592949,196.956131,115.821152,195.415329,114.501869,193.91037C113.679665,192.972458,112.34597,191.990311,111.169296,191.456207C108.903564,190.427811,106.221817,190.339767,103.823471,191.215057C100.735657,192.341965,98.249474,195.21109,97.350967,198.684479C97.207672,199.238449,97.181061,199.285721,96.789032,199.682983C96.037521,200.444534,95.543144,201.713699,95.529472,202.916519C95.520157,203.736237,95.612167,204.045639,95.962723,204.373306C96.237595,204.630249,96.383835,204.952332,96.384636,205.302597C96.385078,205.495148,96.701744,206.846893,96.78302,207.003189C96.83075,207.094971,96.929596,207.116302,97.307983,207.116425C99.182213,207.11705,102.11647,207.543747,103.966331,208.084686C106.256866,208.754471,108.594276,209.862854,110.147209,211.01564C110.413734,211.213486,110.648933,211.376541,110.669884,211.377991C110.690834,211.379425,110.738701,211.313171,110.77626,211.230743zM111.05954,204.03363C110.559746,203.787415,110.250984,203.016998,110.397484,202.381683C110.603546,201.488113,111.397293,201.065018,112.151764,201.446609C112.59259,201.669586,112.818756,202.042084,112.850098,202.596771C112.872124,202.986511,112.851845,203.095215,112.698784,203.408081C112.381454,204.056671,111.662918,204.330872,111.05954,204.03363zM102.167709,204.068909C101.961884,203.955353,101.679428,203.674561,101.580452,203.485107C101.037369,202.445557,101.747925,201.197067,102.814255,201.317261C104.064201,201.458145,104.362648,203.315582,103.245041,203.998428C102.982498,204.158844,102.399811,204.19696,102.167709,204.068909zM109.744202,207.208954C109.394333,207.019104,109.251572,206.390762,109.47934,206.043152C109.707153,205.695465,110.809975,205.070465,111.730186,204.767532C112.33493,204.568451,113.353691,204.403503,113.981895,204.402954C114.3993,204.402618,114.436981,204.41507,114.644157,204.622253C114.830994,204.809097,114.863838,204.886856,114.863838,205.142365C114.863838,205.74176,114.564873,206.017502,113.914032,206.018356C112.838303,206.01976,111.642151,206.411713,110.734344,207.060242C110.349052,207.33551,110.057999,207.379211,109.744202,207.208954zM103.550262,207.149261C102.48304,206.367477,101.757095,206.089478,100.649345,206.0383C100.276215,206.021057,99.877655,205.978485,99.763672,205.943695C99.546677,205.877441,99.341782,205.60733,99.266617,205.288391C99.202072,205.014496,99.420692,204.574677,99.673431,204.469986C99.967239,204.348297,101.30481,204.419281,102.003372,204.593658C102.990662,204.840118,104.393585,205.603745,104.659119,206.039215C104.899345,206.433197,104.79277,206.89975,104.402458,207.162781C104.116966,207.355164,103.825012,207.350555,103.550262,207.149261zM106.335144,197.767471C105.557549,197.636765,104.465698,197.182877,103.912453,196.760376C103.507309,196.450958,102.974487,195.923447,102.873459,195.73172C102.709351,195.420303,102.754791,195.11235,103.001198,194.865952C103.188828,194.678314,103.265259,194.646271,103.525139,194.646271C103.808044,194.646271,103.854996,194.671646,104.193871,195.007645C105.071953,195.878281,106.099144,196.326172,107.217789,196.326172C107.931923,196.326172,108.32988,196.235428,108.984207,195.923431C109.427605,195.71199,109.629112,195.563751,110.030235,195.1539C110.509903,194.663818,110.537491,194.646271,110.828186,194.646271C111.084488,194.646271,111.162003,194.67897,111.348984,194.865952C111.643578,195.160553,111.656532,195.540314,111.384674,195.912659C110.756493,196.77301,109.612823,197.45932,108.389275,197.710144C107.929718,197.804352,106.750305,197.837265,106.335144,197.767471z"
     id="path3" />
  <path
     transform="matrix(1,0,0,-1,0,0)"
     style="stroke:none;fill:#000000;fill-rule:evenodd"
     d="M145.649048,193.352737C145.505753,193.324265,145.040558,193.170486,144.615265,193.011002C143.024414,192.414429,140.980225,191.621246,140.839539,191.545959C140.75943,191.503098,140.340973,191.411789,139.909637,191.343079C137.649994,190.983078,136.3396,190.316711,135.381577,189.040466C134.971436,188.49411,134.346649,187.325378,134.181702,186.79599C134.137421,186.653839,134.079376,186.508469,134.052765,186.472931C134.026123,186.437408,133.690826,185.841354,133.307648,185.148407C132.924484,184.455444,132.02829,182.841782,131.316132,181.562469C130.603973,180.283173,129.872223,178.967911,129.690033,178.639664L129.358765,178.042862L128.339355,180.351868C126.961845,183.471893,126.687439,184.037796,126.186142,184.792267C125.675972,185.56012,124.736588,186.552185,123.974037,187.128479C123.287926,187.646988,121.966797,188.312927,121.034218,188.610336C119.728264,189.026825,119.149193,189.099335,116.839233,189.135559C115.399849,189.158142,114.702454,189.145767,114.531685,189.094604C114.37606,189.047974,114.080307,188.829605,113.719307,188.494781C112.767509,187.611984,111.82972,187.062027,110.543465,186.632309C109.330025,186.226929,108.780525,186.149582,107.142784,186.153656C105.935242,186.156647,105.62719,186.17804,105.095718,186.295853C103.334808,186.686157,101.811852,187.457245,100.643158,188.550201C100.361786,188.813324,100.054565,189.057892,99.960434,189.093689C99.726791,189.18251,96.890228,189.180527,96.126549,189.091003C92.410034,188.655289,89.709473,187.000534,87.958466,184.086044C87.684067,183.629333,86.659019,181.580719,85.313675,178.800339C85.060051,178.276184,84.837852,177.847504,84.819901,177.847733C84.801956,177.847961,84.732712,177.942444,84.666046,178.057724C84.382034,178.548798,83.33049,180.421906,82.734787,181.497864C82.380646,182.137512,81.712654,183.344131,81.250366,184.17923C80.788086,185.014343,80.344635,185.785126,80.264931,185.89209C80.185226,185.999039,80.097778,186.188034,80.070587,186.312057C79.901543,187.083191,78.98201,188.699936,78.297653,189.42923C77.305344,190.486725,76.334274,190.948196,74.384834,191.288666C73.554672,191.433655,73.068756,191.600906,70.221756,192.721588L68.578522,193.368423L67.992668,193.342712C67.505836,193.32132,67.335823,193.283432,66.986839,193.118515C66.236115,192.763763,65.761398,192.13063,65.617668,191.29245C65.547699,190.884445,65.551865,190.77121,65.650726,190.393784C65.712936,190.156281,65.833183,189.85701,65.917946,189.72876L66.07206,189.495575L64.89801,189.355713C64.252289,189.278778,63.287838,189.171753,62.754795,189.117859C60.991055,188.939545,60.37122,188.639282,59.917194,187.743317C59.826546,187.564423,59.688683,187.402435,59.588058,187.356598C58.629456,186.91983,58.10656,185.631195,58.416748,184.469986C58.67601,183.499405,59.458958,182.722656,60.310982,182.590729C60.529427,182.556915,60.595692,182.513123,60.658733,182.360931C60.810501,181.994522,61.71315,181.299088,62.500114,180.942261C63.39846,180.534943,63.311394,180.542572,67.406815,180.512314L71.154266,180.48465L72.57399,177.599152C73.354828,176.012146,74.848312,172.983704,75.892838,170.869293C76.937363,168.754898,78.350693,165.890991,79.033585,164.505081C80.266754,162.002365,80.278641,161.981583,80.781647,161.447556C81.874847,160.286942,83.130272,159.673126,84.772476,159.496307C86.350891,159.32637,88.231293,159.823685,89.673828,160.792587C90.211594,161.153793,91.096054,161.90065,91.34108,162.20047L91.534813,162.437515L91.53698,162.171173C91.539497,161.861725,91.348038,158.404022,91.120613,154.651855C91.033379,153.212631,90.901703,151.039444,90.828003,149.82254C90.687416,147.50116,90.696678,147.283661,90.948853,146.984329C91.01387,146.907166,91.166008,146.783707,91.286942,146.709976L91.506836,146.575912L107.677902,146.575684C125.356369,146.575409,124.098457,146.54686,124.443008,146.956329C124.7089,147.272324,124.753944,147.53714,124.68541,148.381195C124.652069,148.791702,124.550568,150.290588,124.459862,151.712036C124.236641,155.2099,124.190651,155.91423,124.002655,158.714828C123.913475,160.043304,123.849724,161.139435,123.86097,161.150681C123.872223,161.161926,124.064201,161.043945,124.287605,160.888474C125.162628,160.279526,126.317825,159.794678,127.388512,159.587006C128.508392,159.369797,130.006256,159.512207,131.115173,159.941345C132.130554,160.334259,133.240417,161.226135,133.757324,162.064575C134.020523,162.491501,137.598282,169.699844,140.892365,176.440033L142.872864,180.492401L145.780365,180.497681C147.379486,180.500595,149.154724,180.526123,149.725311,180.554443C150.717789,180.603668,150.785889,180.615906,151.29657,180.8367C151.590164,180.963623,151.993256,181.164322,152.192352,181.282684C152.630646,181.543243,153.188019,182.081451,153.300323,182.35257C153.37059,182.522217,153.425964,182.556946,153.684219,182.593323C154.413513,182.696075,155.083221,183.23996,155.460114,184.035583C155.652618,184.441956,155.665894,184.515839,155.665894,185.18071C155.665894,185.813599,155.647247,185.931198,155.495636,186.254547C155.277771,186.719208,154.913788,187.121033,154.538559,187.311188C154.313019,187.425476,154.222168,187.518494,154.155197,187.703674C153.980591,188.186523,153.343689,188.7285,152.758392,188.892288C152.616241,188.932068,151.500595,189.078659,150.279175,189.218048C149.057739,189.357452,148.049103,189.480804,148.03772,189.492172C148.026352,189.50354,148.109833,189.70015,148.223236,189.929077C148.411972,190.310059,148.429321,190.397446,148.428253,190.961273C148.427261,191.491211,148.403076,191.62883,148.255096,191.946686C147.905548,192.697556,147.256882,193.195801,146.430756,193.348022C146.007446,193.42601,146.017578,193.425949,145.649048,193.352737zM69.58374,190.517227C70.411995,190.200745,71.48217,189.791901,71.961914,189.608673C72.604996,189.363083,73.071823,189.234161,73.738724,189.117966C74.90741,188.914352,75.589523,188.701935,76.068306,188.392471C76.758484,187.946396,77.067993,187.501373,77.644218,186.126587L77.897705,185.521805L75.089279,184.139786L72.280853,182.757782L68.125748,182.757782C63.56147,182.757782,63.679955,182.748474,63.04108,183.157166C62.59766,183.440811,62.464043,183.573822,62.464043,183.731567C62.464043,183.852356,62.53627,183.856171,64.825294,183.856171L67.186546,183.856171L67.345139,184.014771C67.554947,184.224579,67.554947,184.521545,67.345139,184.731369L67.186546,184.889954L64.32872,184.889954C61.504921,184.889954,61.469158,184.888336,61.324936,184.752838C61.152481,184.59082,60.940281,184.620743,60.692734,184.841965C60.478542,185.033371,60.419403,185.291321,60.557953,185.429871C60.653461,185.525375,60.969009,185.536072,63.691582,185.536072L66.719009,185.536072L66.852928,185.706314C67.029366,185.930634,67.021835,186.066071,66.819565,186.306458L66.65229,186.505249L64.865074,186.505585C63.882103,186.505768,62.792637,186.524796,62.444046,186.547882C61.90197,186.583771,61.823277,186.60289,61.900337,186.679947C61.961899,186.741516,62.479847,186.82048,63.535618,186.92926C64.385468,187.016846,65.749527,187.173737,66.566864,187.277924C67.384201,187.382111,68.590813,187.528687,69.24823,187.603638C70.634056,187.761627,70.610962,187.756409,70.862648,187.96817C71.10939,188.175812,71.221214,188.56282,71.121643,188.864532C71.009674,189.203796,70.685921,189.436172,69.493446,190.033188C68.886757,190.336929,68.278107,190.656311,68.140884,190.742935C67.89283,190.899536,67.806534,191.092651,67.984612,191.092651C68.035873,191.092651,68.755486,190.83371,69.58374,190.517227zM72.157578,187.08139C71.578003,186.979233,70.926483,186.764145,70.409447,186.504272C69.855598,186.225891,68.901085,185.541016,68.838066,185.376801C68.754875,185.160004,68.796562,184.84906,68.927689,184.708313C69.137131,184.483505,69.436241,184.519409,69.703995,184.801468C69.974525,185.086472,70.646469,185.527344,71.101532,185.718414C71.943405,186.071899,73.141182,186.208969,73.997162,186.049805C74.77623,185.904922,74.959892,185.902222,75.078644,186.033859C75.140411,186.102341,75.209076,186.249023,75.231232,186.359833C75.291893,186.663132,75.066833,186.851303,74.476105,186.991196C73.919258,187.123062,72.669777,187.171661,72.157578,187.08139zM146.16803,190.958038C146.16803,190.819397,145.998154,190.714966,144.652847,190.026566C142.98172,189.171432,142.906113,189.108047,142.905502,188.561615C142.905121,188.218994,143.097488,187.928879,143.404587,187.808929C143.503036,187.770493,144.223236,187.66301,145.005035,187.570099C148.621429,187.140335,149.23172,187.07045,150.604706,186.928925C151.410202,186.845886,152.100739,186.758484,152.139221,186.734695C152.177704,186.710907,152.209198,186.649551,152.209198,186.598343C152.209198,186.518982,151.861542,186.505249,149.853912,186.505249C148.241058,186.505249,147.448151,186.482239,147.33844,186.432251C147.143936,186.343628,147.011017,186.049194,147.066208,185.829254C147.089294,185.737274,147.195847,185.621582,147.313538,185.56073C147.501038,185.46376,147.789871,185.458221,150.415955,185.501175C152.655945,185.537811,153.33313,185.530701,153.406525,185.469788C153.45871,185.426468,153.501419,185.297897,153.501419,185.184067C153.501419,184.955383,153.323517,184.747482,153.033966,184.637787C152.882309,184.580338,152.83461,184.593475,152.697678,184.730408L152.538116,184.889954L149.700989,184.889954C146.928589,184.889954,146.859985,184.886902,146.693634,184.756042C146.495331,184.600067,146.464325,184.292297,146.623978,184.064392C146.721603,183.924988,146.760895,183.920547,147.964661,183.91272C148.646729,183.908295,149.728119,183.88649,150.367767,183.864258C151.489807,183.825287,151.531464,183.819031,151.550369,183.686478C151.57457,183.516861,151.197144,183.178345,150.707794,182.930756L150.365906,182.757782L146.059418,182.757782L141.75293,182.757782L139.050018,184.087952C137.563416,184.81955,136.283585,185.443222,136.205948,185.473907C136.067322,185.528671,136.072098,185.545868,136.471252,186.429398C136.934967,187.455841,136.971558,187.515274,137.418671,187.968979C138.01149,188.570526,138.699249,188.843063,140.321869,189.119415C141.314331,189.288452,141.179932,189.242554,144.39122,190.508789C146.297729,191.260529,146.16803,191.227722,146.16803,190.958038zM140.191483,187.104858C139.782394,187.058167,139.129684,186.88942,138.98082,186.79187C138.786163,186.664322,138.776428,186.240402,138.963867,186.052963C139.120087,185.896744,139.299194,185.891998,139.933044,186.027252C140.515228,186.151489,141.689667,186.115326,142.291351,185.954636C142.939804,185.781448,143.80246,185.324951,144.251755,184.917206C144.700745,184.509735,144.946869,184.442703,145.162308,184.669205C145.477692,185.000793,145.360291,185.339127,144.766266,185.810349C143.500244,186.814713,141.818451,187.290604,140.191483,187.104858zM99.518646,186.499603C100.800125,185.386475,102.480896,184.589325,104.461411,184.155365C108.233963,183.328751,112.301308,184.244598,114.960754,186.519516L115.413033,186.906403L116.963707,186.872284C119.138779,186.824432,120.042313,186.644165,121.37561,185.992111C122.232124,185.573212,122.713409,185.243027,123.339905,184.64447C123.94194,184.069305,124.369072,183.505859,124.770195,182.757782C125.157822,182.034866,126.5084,178.941254,127.605034,176.264343C128.211304,174.784409,128.382111,174.474884,128.687103,174.303467C129.117859,174.061371,129.632492,174.139832,129.960144,174.497543C130.036469,174.580887,130.607498,175.579468,131.22908,176.716629C133.700684,181.238281,135.266571,184.05191,135.375946,184.167801C135.442108,184.237915,135.945038,184.009003,138.175995,182.89328L140.895401,181.533264L139.872925,179.447998C138.898895,177.461548,136.813278,173.246109,133.438843,166.44342C131.903595,163.348434,131.899506,163.341141,131.442413,162.882645C131.154755,162.594101,130.831604,162.346115,130.573669,162.215973C129.11467,161.479782,127.237526,161.64502,125.689415,162.645935C124.759338,163.247253,124.033936,164.098083,122.851585,165.974426C122.133873,167.113403,122.004631,167.236465,121.654388,167.11438C121.298912,166.990463,121.237083,166.769379,121.286919,165.80043C121.416817,163.274734,121.921471,155.410797,122.261497,150.613647C122.314392,149.867386,122.35791,149.162308,122.358208,149.046814L122.358757,148.836838L107.724289,148.836838L93.089813,148.836838L93.0896,148.982208C93.089485,149.062164,93.133949,149.88353,93.188416,150.80748C93.242867,151.731415,93.372986,154.028351,93.477554,155.911774C93.582115,157.795197,93.78627,161.305756,93.931236,163.713043C94.178589,167.820557,94.188324,168.103546,94.0896,168.3116C93.961227,168.582123,93.617996,168.764069,93.347946,168.704742C93.090385,168.648178,92.939278,168.460419,91.865761,166.863022C89.720306,163.670578,89.051231,162.934875,87.694771,162.276688C86.903458,161.892731,86.32402,161.759094,85.450348,161.759094C84.278366,161.759094,83.37915,162.105667,82.622398,162.84903L82.185898,163.277817L80.028046,167.606598C78.841225,169.987427,77.451988,172.793106,76.940857,173.841415C76.429726,174.88974,75.376579,177.038605,74.600525,178.616669C73.824478,180.194733,73.189529,181.495712,73.189529,181.507751C73.189529,181.519775,74.411972,182.137314,75.906082,182.880066C78.580727,184.209671,78.624001,184.228363,78.71096,184.091797C78.811111,183.934509,80.280243,181.302292,81.348755,179.365692C82.37088,177.513153,83.846771,174.884018,84.022919,174.601929C84.370438,174.045441,85.262558,173.934891,85.669937,174.397858C85.728973,174.464951,86.364464,175.740997,87.082138,177.233521C89.563789,182.394531,90.045113,183.273453,90.899162,184.203568C91.986015,185.387207,93.681435,186.326263,95.343636,186.665237C96.074631,186.814316,96.799484,186.873199,98.032585,186.883682L99.066368,186.892456L99.518646,186.499603z"
     id="path4" />
  <path
     style="fill:#803300;stroke-width:1.04346"
     d="m 220.21594,196.61119 c -5.85505,-2.5399 -10.42725,-6.57753 -14.29479,-12.62348 -1.9969,-3.12165 -4.37708,-5.96213 -5.28929,-6.31218 -1.72667,-0.66258 -2.10917,-0.46129 -12.71254,6.69012 -9.93195,6.69858 -27.56666,11.77502 -40.9797,11.79667 l -4.88359,0.008 0.89827,-3.13208 c 4.84037,-16.87736 19.9766,-27.09186 40.17267,-27.11001 9.2862,-0.008 14.29079,1.39551 18.66447,5.23564 2.07385,1.82087 5.62034,3.5127 8.78716,4.19186 6.68346,1.43335 11.88871,6.80441 14.22782,14.68105 2.64659,8.91205 2.21685,9.52754 -4.59048,6.57453 z"
     id="path5"
     transform="matrix(0.26458264,0,0,0.26458264,58.334099,-261.4248)" />
  <path
     style="fill:#0000e7;stroke-width:1.04346;fill-opacity:1"
     d="m 131.98421,421.8181 c 0.25094,-1.57823 1.26441,-18.04917 2.25215,-36.60209 1.55659,-29.23779 1.59659,-33.85869 0.30024,-34.67902 -2.37828,-1.50497 -2.8672,-1.2324 -6.19972,3.45631 -1.7336,2.43908 -5.11584,7.169 -7.51611,10.51094 -5.34982,7.44865 -11.49057,11.31473 -17.97196,11.31473 -9.22917,0 -9.539153,-0.41538 -28.352647,-37.99314 -9.40827,-18.79192 -17.105946,-34.54286 -17.105946,-35.00208 0,-0.45922 4.249017,-2.91763 9.442258,-5.46314 7.953619,-3.89853 9.597802,-4.38477 10.42885,-3.08416 0.542625,0.84922 5.242558,9.15137 10.444296,18.44923 9.086061,16.2409 11.276467,18.8422 14.745139,17.51114 0.84111,-0.32276 4.68459,-7.27895 8.54107,-15.45819 3.85649,-8.17924 8.75175,-17.15316 10.87836,-19.94204 5.40144,-7.08358 12.81663,-11.02117 22.88015,-12.14975 7.48431,-0.83933 8.19689,-0.74165 11.18532,1.53335 8.88663,6.76512 18.88532,9.47304 32.52804,8.80949 9.86123,-0.47963 17.95124,-3.29844 25.08689,-8.74107 3.22104,-2.45681 3.76918,-2.53604 11.53411,-1.66731 9.75786,1.09171 17.4938,4.67113 22.05528,10.205 1.75002,2.12307 6.10362,10.70864 9.67467,19.07904 3.57105,8.37039 6.93978,15.80584 7.48608,16.52322 0.5463,0.71738 2.23751,1.30433 3.75826,1.30433 2.5,0 3.76259,-1.78871 13.17367,-18.66305 l 10.40867,-18.66305 9.39379,4.69685 c 5.16658,2.58326 9.5244,4.81238 9.68405,4.95358 0.15965,0.1412 -7.14575,15.46495 -16.23421,34.05278 -19.29135,39.45487 -19.7075,39.99965 -30.0517,39.34099 -7.91649,-0.50409 -12.07055,-3.3352 -18.25386,-12.44054 -4.07608,-6.00229 -6.59584,-8.17049 -7.93683,-6.82949 -0.89681,0.8968 -0.47272,13.83417 1.25373,38.24635 0.83202,11.765 1.51948,23.38652 1.52769,25.8256 l 0.0149,4.4347 h -54.75548 -54.75549 z"
     id="path6"
     transform="matrix(0.26458264,0,0,0.26458264,58.334099,-261.4248)" />
  <path
     style="fill:#ffccaa;fill-opacity:1;stroke-width:1.04346"
     d="m 175.52979,265.96777 c -6.26533,-1.49356 -16.61439,-8.89091 -20.6681,-14.77323 -1.88028,-2.72847 -4.35757,-7.47022 -5.50508,-10.53723 -1.14752,-3.06701 -3.25215,-7.29422 -4.67696,-9.39379 -3.52193,-5.18986 -4.50943,-11.44029 -2.33237,-14.76289 0.92147,-1.40635 2.04045,-4.32563 2.4866,-6.48729 0.77887,-3.77369 0.99664,-3.94187 5.46545,-4.22109 14.57251,-0.91051 33.38813,-6.50123 42.64995,-12.67266 l 4.60501,-3.06847 2.77748,3.49501 c 5.26428,6.62423 13.33498,11.96455 20.37505,13.48202 2.76376,0.59573 3.40108,1.46641 5.24878,7.17069 2.53669,7.83138 1.98636,12.74277 -1.95237,17.42368 -1.53452,1.82367 -2.7904,4.10146 -2.79085,5.06175 -0.002,3.62481 -6.12854,14.49308 -10.80854,19.17308 -6.73847,6.73847 -14.24746,10.21541 -23.21162,10.74784 -3.95759,0.23507 -9.20569,-0.0518 -11.66243,-0.63742 z m -1.72087,-14.61251 c 0.39488,-0.63894 2.79354,-2.07982 5.33035,-3.20198 5.46288,-2.41649 9.64149,-1.86501 14.70765,1.94109 3.80506,2.85866 6.80697,2.85262 7.35919,-0.0148 0.82993,-4.30953 -8.41525,-10.02082 -16.28661,-10.06119 -8.10764,-0.0416 -16.92268,5.20484 -16.92268,10.07183 0,1.87726 0.57674,2.42676 2.54706,2.42676 1.40089,0 2.87015,-0.52277 3.26504,-1.1617 z m -1.98526,-26.61019 c 1.60146,-2.44414 1.62776,-3.01576 0.25201,-5.47816 -2.93705,-5.25689 -9.55701,-3.54734 -9.55701,2.46802 0,5.88373 6.12407,7.86485 9.305,3.01014 z m 33.89247,0.19718 c 1.66425,-3.65265 0.3319,-7.74097 -2.77701,-8.52125 -3.62471,-0.90975 -5.55029,0.0788 -6.34853,3.25928 -1.08558,4.32531 1.04914,7.79367 4.7969,7.79367 2.34846,0 3.47544,-0.65913 4.32864,-2.5317 z m -36.05144,-11.44389 c 5.40641,-2.51741 7.09444,-4.59888 6.01368,-7.41531 -0.8226,-2.14365 -3.85598,-1.96226 -8.72501,0.52173 -2.24988,1.14781 -5.24489,2.08692 -6.65557,2.08692 -4.08182,0 -5.86593,1.09184 -5.86593,3.58983 0,1.27771 0.31304,2.63614 0.69564,3.01874 1.52679,1.52679 9.51486,0.53666 14.53719,-1.80191 z m 44.04923,-0.8573 c 0.27481,-2.3834 -0.13926,-2.92408 -2.60864,-3.40622 -1.61442,-0.31521 -5.04831,-1.31486 -7.63087,-2.22144 -7.57625,-2.65956 -10.05761,-2.89606 -10.77486,-1.02695 -1.05031,2.73706 0.2872,4.58439 4.86821,6.72389 6.47807,3.02548 7.11469,3.18768 11.64567,2.96706 3.70408,-0.18035 4.2106,-0.52208 4.50049,-3.03634 z"
     id="path7"
     transform="matrix(0.26458264,0,0,0.26458264,58.334099,-261.4248)" />
  <path
     style="fill:#ffccaa;fill-opacity:1;stroke-width:1.04346"
     d="m 304.47373,291.47433 -10.129,-4.78168 2.08429,-4.08555 c 2.18315,-4.27933 7.3187,-8.15154 10.86951,-8.19562 1.1478,-0.0143 5.37381,-1.18785 9.39112,-2.608 8.83063,-3.12169 10.51088,-3.26611 5.99989,-0.51571 -3.4222,2.08656 -4.49179,5.46885 -2.18105,6.89696 0.6656,0.41137 7.59156,1.55482 15.39101,2.54101 12.77509,1.61531 13.47938,1.80587 7.10473,1.92229 -5.44376,0.0994 -7.22397,0.51458 -7.71712,1.79972 -1.10908,2.89022 1.93889,3.55419 13.10839,2.85554 8.54127,-0.53425 10.7429,-0.3965 10.39395,0.65036 -0.3306,0.99177 -3.67007,1.28367 -13.18446,1.15242 -12.12792,-0.16729 -12.74173,-0.0747 -12.74173,1.9228 0,1.90838 0.78018,2.12603 8.60853,2.40163 4.84134,0.17044 8.60854,0.7597 8.60854,1.34653 0,0.64618 -6.75375,1.12636 -17.7388,1.26122 l -17.73879,0.21776 z m 24.7241,-1.3713 c 2.3825,-3.85497 -7.53859,-9.42049 -16.75059,-9.39672 -6.70121,0.0173 -9.32724,1.01338 -8.5802,3.25459 0.33573,1.00722 2.47056,1.43096 7.28166,1.44532 5.6464,0.0169 7.49921,0.49531 10.86938,2.80679 4.39363,3.01344 6.19274,3.48704 7.17975,1.89002 z"
     id="path8"
     transform="matrix(0.26458264,0,0,0.26458264,58.334099,-261.4248)" />
  <path
     style="fill:#ffccaa;fill-opacity:1;stroke-width:1.04346"
     d="m 17.773635,294.81901 c -1.08928,-1.31251 0.01169,-1.5651 7.959038,-1.82606 7.368151,-0.24193 9.223187,-0.61764 9.223187,-1.86803 0,-1.29015 -2.246116,-1.61667 -12.782367,-1.85817 -7.039265,-0.16134 -12.7823665,-0.73202 -12.7823665,-1.27015 0,-0.53744 5.2825085,-1.10993 11.7389085,-1.2722 9.607817,-0.24148 11.738908,-0.57919 11.738908,-1.86023 0,-1.19252 -1.739098,-1.68941 -7.30421,-2.08692 l -7.304209,-0.52173 13.043231,-1.43684 c 7.173777,-0.79026 14.099733,-1.83514 15.391013,-2.32195 3.01769,-1.13767 3.032324,-4.51279 0.02869,-6.61662 -1.275502,-0.8934 -1.986931,-1.62436 -1.580956,-1.62436 1.625514,0 19.189674,5.31162 21.472544,6.49356 2.135703,1.10575 7.138209,8.85182 6.238978,9.66067 -0.183511,0.16507 -4.667671,2.46735 -9.964798,5.11618 l -9.631141,4.81605 h -17.11015 c -13.726471,0 -17.360146,-0.30122 -18.3743,-1.5232 z m 26.805853,-5.77747 c 3.636922,-2.8608 9.785256,-4.35211 14.701614,-3.56596 4.522172,0.72313 6.441536,-0.72385 4.331931,-3.26576 -1.961627,-2.36362 -12.934041,-1.99271 -18.330435,0.61964 -5.314372,2.57264 -6.929189,4.33104 -6.059269,6.59802 0.857277,2.23402 2.143214,2.14136 5.356159,-0.38594 z"
     id="path9"
     transform="matrix(0.26458264,0,0,0.26458264,58.334099,-261.4248)" />
</svg>
